<svg xmlns="http://www.w3.org/2000/svg" viewBox="0 0 108.47 116.3"><defs><style>.cls-1{fill:#8899a6;}</style></defs><g id="Layer_2" data-name="Layer 2"><g id="Rules"><path class="cls-1" d="M65.64.06h0L42.85,0h0C18.82,0,0,20.18,0,45.94c0,24.13,17.5,42.43,41,43.4v22.54a5.37,5.37,0,0,0,.65,2.38,4.06,4.06,0,0,0,3.48,2,3.93,3.93,0,0,0,2.21-.7c1.45-1,35.55-24.37,44.42-32.42A51.21,51.21,0,0,0,108.47,46v-.1C108.44,20.2,89.63.07,65.64.06Zm20.8,76.38c-6.23,5.66-26.71,20-37.2,27.34V85a4.28,4.28,0,0,0-4.12-4.42H42.94C22.83,80.6,8.24,66,8.24,45.94c0-20.81,15.2-37.11,34.6-37.11l22.77.06h0C85,8.89,100.21,25.18,100.23,46A42,42,0,0,1,86.44,76.44Z"/></g></g></svg>