<svg xmlns="http://www.w3.org/2000/svg" viewBox="0 0 142.69 102.46"><defs><style>.cls-1{fill:#8899a6;}</style></defs><g id="Layer_2" data-name="Layer 2"><g id="Rules"><path class="cls-1" d="M141.49,71.22a3.92,3.92,0,0,0-5.83,0l-14,15V22.08C121.68,9.91,112.44,0,101.09,0H64.57a4.28,4.28,0,0,0-4.12,4.42,4.28,4.28,0,0,0,4.12,4.41h36.52c6.81,0,12.36,5.95,12.36,13.25V86.2l-14-15a3.91,3.91,0,0,0-5.82,0,4.63,4.63,0,0,0,0,6.24l21,22.53a3.94,3.94,0,0,0,5.83,0l21-22.53A4.66,4.66,0,0,0,141.49,71.22Z"/><path class="cls-1" d="M78.13,93.63H41.6c-6.81,0-12.35-5.95-12.35-13.25V16.25l14,15a3.94,3.94,0,0,0,5.83,0,4.65,4.65,0,0,0,0-6.25L28,2.47a3.91,3.91,0,0,0-5.82,0L1.21,25a4.65,4.65,0,0,0,0,6.25,3.93,3.93,0,0,0,5.82,0l14-15V80.38c0,12.17,9.24,22.08,20.59,22.08H78.13a4.43,4.43,0,0,0,0-8.83Z"/></g></g></svg>