<svg xmlns="http://www.w3.org/2000/svg" viewBox="0 0 105.48 111.37"><defs><style>.cls-1{fill:#8899a6;}</style></defs><g id="Layer_2" data-name="Layer 2"><g id="Rules"><path class="cls-1" d="M81.91,29.52,55.54,1.24a3.78,3.78,0,0,0-5.59,0L23.57,29.52a4.46,4.46,0,0,0,0,6,3.77,3.77,0,0,0,5.6,0l19.62-21V72.1a4,4,0,1,0,7.91,0V14.48l19.62,21a3.75,3.75,0,0,0,5.59,0A4.46,4.46,0,0,0,81.91,29.52Z"/><path class="cls-1" d="M93.4,111.37H12.09c-6.67,0-12.09-5.82-12.09-13v-32A4.11,4.11,0,0,1,4,62.2a4.1,4.1,0,0,1,4,4.24v32a4.35,4.35,0,0,0,4.18,4.48H93.4a4.34,4.34,0,0,0,4.17-4.48v-32a4,4,0,1,1,7.91,0v32C105.48,105.55,100.06,111.37,93.4,111.37Z"/></g></g></svg>